<?xml version="1.0" encoding="UTF-8" standalone="no"?><svg xmlns="http://www.w3.org/2000/svg" xmlns:xlink="http://www.w3.org/1999/xlink" contentScriptType="application/ecmascript" contentStyleType="text/css" height="378px" preserveAspectRatio="none" style="width:823px;height:378px;" version="1.1" viewBox="0 0 823 378" width="823px" zoomAndPan="magnify"><defs/><g><!--class SourceAnchor--><rect fill="#E2E2E2" height="23.9688" id="SourceAnchor" style="stroke: #383838; stroke-width: 1.5;" width="94" x="294.5" y="92"/><rect fill="#E2E2E2" height="23.9688" style="stroke: #383838; stroke-width: 1.5;" width="94" x="294.5" y="92"/><text fill="#000000" font-family="sans-serif" font-size="12" lengthAdjust="spacingAndGlyphs" textLength="88" x="297.5" y="108.1387">SourceAnchor</text><!--class Entity--><rect fill="#E2E2E2" height="23.9688" id="Entity" style="stroke: #383838; stroke-width: 1.5;" width="41" x="593" y="8"/><rect fill="#E2E2E2" height="23.9688" style="stroke: #383838; stroke-width: 1.5;" width="41" x="593" y="8"/><text fill="#000000" font-family="sans-serif" font-size="12" lengthAdjust="spacingAndGlyphs" textLength="35" x="596" y="24.1387">Entity</text><!--class SourceLanguage--><rect fill="#E2E2E2" height="23.9688" id="SourceLanguage" style="stroke: #383838; stroke-width: 1.5;" width="112" x="695.5" y="92"/><rect fill="#E2E2E2" height="23.9688" style="stroke: #383838; stroke-width: 1.5;" width="112" x="695.5" y="92"/><text fill="#000000" font-family="sans-serif" font-size="12" lengthAdjust="spacingAndGlyphs" textLength="106" x="698.5" y="108.1387">SourceLanguage</text><!--class SourcedEntity--><rect fill="#E2E2E2" height="23.9688" id="SourcedEntity" style="stroke: #383838; stroke-width: 1.5;" width="93" x="567" y="92"/><rect fill="#E2E2E2" height="23.9688" style="stroke: #383838; stroke-width: 1.5;" width="93" x="567" y="92"/><text fill="#000000" font-family="sans-serif" font-size="12" lengthAdjust="spacingAndGlyphs" textLength="87" x="570" y="108.1387">SourcedEntity</text><!--class Association--><rect fill="#E2E2E2" height="23.9688" id="Association" style="stroke: #383838; stroke-width: 1.5;" width="78" x="633.5" y="176"/><rect fill="#E2E2E2" height="23.9688" style="stroke: #383838; stroke-width: 1.5;" width="78" x="633.5" y="176"/><text fill="#000000" font-family="sans-serif" font-size="12" lengthAdjust="spacingAndGlyphs" textLength="72" x="636.5" y="192.1387">Association</text><!--class Comment--><rect fill="#E2E2E2" height="23.9688" id="Comment" style="stroke: #383838; stroke-width: 1.5;" width="65" x="747" y="176"/><rect fill="#E2E2E2" height="23.9688" style="stroke: #383838; stroke-width: 1.5;" width="65" x="747" y="176"/><text fill="#000000" font-family="sans-serif" font-size="12" lengthAdjust="spacingAndGlyphs" textLength="59" x="750" y="192.1387">Comment</text><!--class NamedEntity--><rect fill="#E2E2E2" height="23.9688" id="NamedEntity" style="stroke: #383838; stroke-width: 1.5;" width="85" x="513" y="176"/><rect fill="#E2E2E2" height="23.9688" style="stroke: #383838; stroke-width: 1.5;" width="85" x="513" y="176"/><text fill="#000000" font-family="sans-serif" font-size="12" lengthAdjust="spacingAndGlyphs" textLength="79" x="516" y="192.1387">NamedEntity</text><!--class SourceTextAnchor--><rect fill="#E2E2E2" height="23.9688" id="SourceTextAnchor" style="stroke: #383838; stroke-width: 1.5;" width="120" x="203.5" y="176"/><rect fill="#E2E2E2" height="23.9688" style="stroke: #383838; stroke-width: 1.5;" width="120" x="203.5" y="176"/><text fill="#000000" font-family="sans-serif" font-size="12" lengthAdjust="spacingAndGlyphs" textLength="114" x="206.5" y="192.1387">SourceTextAnchor</text><!--class AbstractFile--><rect fill="#FFFFFF" height="23.9688" id="AbstractFile" style="stroke: #383838; stroke-width: 1.5;" width="80" x="515.5" y="260"/><text fill="#000000" font-family="sans-serif" font-size="12" lengthAdjust="spacingAndGlyphs" textLength="74" x="518.5" y="276.1387">AbstractFile</text><!--class AbstractFileAnchor--><rect fill="#FFFFFF" height="23.9688" id="AbstractFileAnchor" style="stroke: #383838; stroke-width: 1.5;" width="124" x="44.5" y="176"/><text fill="#000000" font-family="sans-serif" font-size="12" lengthAdjust="spacingAndGlyphs" textLength="118" x="47.5" y="192.1387">AbstractFileAnchor</text><!--class File--><rect fill="#FFFFFF" height="23.9688" id="File" style="stroke: #383838; stroke-width: 1.5;" width="27" x="506" y="344"/><text fill="#000000" font-family="sans-serif" font-size="12" lengthAdjust="spacingAndGlyphs" textLength="21" x="509" y="360.1387">File</text><!--class FileAnchor--><rect fill="#FFFFFF" height="23.9688" id="FileAnchor" style="stroke: #383838; stroke-width: 1.5;" width="71" x="6" y="260"/><text fill="#000000" font-family="sans-serif" font-size="12" lengthAdjust="spacingAndGlyphs" textLength="65" x="9" y="276.1387">FileAnchor</text><!--class Folder--><rect fill="#FFFFFF" height="23.9688" id="Folder" style="stroke: #383838; stroke-width: 1.5;" width="45" x="568" y="344"/><text fill="#000000" font-family="sans-serif" font-size="12" lengthAdjust="spacingAndGlyphs" textLength="39" x="571" y="360.1387">Folder</text><!--class IndexedFileAnchor--><rect fill="#FFFFFF" height="23.9688" id="IndexedFileAnchor" style="stroke: #383838; stroke-width: 1.5;" width="120" x="112.5" y="260"/><text fill="#000000" font-family="sans-serif" font-size="12" lengthAdjust="spacingAndGlyphs" textLength="114" x="115.5" y="276.1387">IndexedFileAnchor</text><!--class MultipleFileAnchor--><rect fill="#FFFFFF" height="23.9688" id="MultipleFileAnchor" style="stroke: #383838; stroke-width: 1.5;" width="119" x="359" y="176"/><text fill="#000000" font-family="sans-serif" font-size="12" lengthAdjust="spacingAndGlyphs" textLength="113" x="362" y="192.1387">MultipleFileAnchor</text><!--link Entity to SourceAnchor--><path d="M573.253,33.133 C520.559,49.019 428.938,76.64 378.11,91.963 " fill="none" id="Entity-SourceAnchor" style="stroke: #383838; stroke-width: 1.0;"/><polygon fill="none" points="571.439,26.369,592.608,27.298,575.48,39.773,571.439,26.369" style="stroke: #383838; stroke-width: 1.0;"/><!--link Entity to SourceLanguage--><path d="M649.688,42.503 C676.332,58.335 711.485,79.223 732.743,91.854 " fill="none" id="Entity-SourceLanguage" style="stroke: #383838; stroke-width: 1.0;"/><polygon fill="none" points="645.729,48.293,632.111,32.059,652.881,36.258,645.729,48.293" style="stroke: #383838; stroke-width: 1.0;"/><!--link Entity to SourcedEntity--><path d="M613.5,52.2 C613.5,66.136 613.5,81.676 613.5,91.854 " fill="none" id="Entity-SourcedEntity" style="stroke: #383838; stroke-width: 1.0;"/><polygon fill="none" points="606.5,52.059,613.5,32.059,620.5,52.059,606.5,52.059" style="stroke: #383838; stroke-width: 1.0;"/><!--link SourcedEntity to Association--><path d="M633.44,132.713 C644.062,147.476 656.539,164.817 664.481,175.854 " fill="none" id="SourcedEntity-Association" style="stroke: #383838; stroke-width: 1.0;"/><polygon fill="none" points="627.456,136.382,621.457,116.059,638.82,128.205,627.456,136.382" style="stroke: #383838; stroke-width: 1.0;"/><!--link SourcedEntity to Comment--><path d="M653.855,124.934 C686.347,140.985 730.81,162.948 757.203,175.986 " fill="none" id="SourcedEntity-Comment" style="stroke: #383838; stroke-width: 1.0;"/><polygon fill="none" points="650.719,131.193,635.887,116.059,656.919,118.641,650.719,131.193" style="stroke: #383838; stroke-width: 1.0;"/><!--link SourcedEntity to NamedEntity--><path d="M593.898,132.713 C583.456,147.476 571.19,164.817 563.383,175.854 " fill="none" id="SourcedEntity-NamedEntity" style="stroke: #383838; stroke-width: 1.0;"/><polygon fill="none" points="588.414,128.345,605.678,116.059,599.843,136.429,588.414,128.345" style="stroke: #383838; stroke-width: 1.0;"/><!--link SourceAnchor to SourceTextAnchor--><path d="M316.996,130.76 C302.574,145.922 285.067,164.327 274.102,175.854 " fill="none" id="SourceAnchor-SourceTextAnchor" style="stroke: #383838; stroke-width: 1.0;"/><polygon fill="none" points="312.124,125.726,330.981,116.059,322.268,135.375,312.124,125.726" style="stroke: #383838; stroke-width: 1.0;"/><!--link NamedEntity to AbstractFile--><path d="M555.5,220.2 C555.5,234.136 555.5,249.676 555.5,259.854 " fill="none" id="NamedEntity-AbstractFile" style="stroke: #383838; stroke-width: 1.0;"/><polygon fill="none" points="548.5,220.059,555.5,200.059,562.5,220.059,548.5,220.059" style="stroke: #383838; stroke-width: 1.0;"/><!--link SourceAnchor to AbstractFileAnchor--><path d="M290.733,122.714 C244.34,138.903 177.183,162.336 138.065,175.986 " fill="none" id="SourceAnchor-AbstractFileAnchor" style="stroke: #383838; stroke-width: 1.0;"/><polygon fill="none" points="288.617,116.039,309.807,116.059,293.23,129.257,288.617,116.039" style="stroke: #383838; stroke-width: 1.0;"/><!--link AbstractFile to File--><path d="M542.463,302.6957 C536.181,317.0053 529.023,333.3078 524.393,343.8544 " fill="none" id="AbstractFile-File" style="stroke: #383838; stroke-width: 1.0;"/><polygon fill="none" points="536.196,299.5578,550.645,284.0589,549.015,305.1857,536.196,299.5578" style="stroke: #383838; stroke-width: 1.0;"/><!--link AbstractFileAnchor to FileAnchor--><path d="M85.3097,215.732 C73.4431,230.703 59.2783,248.572 50.3349,259.854 " fill="none" id="AbstractFileAnchor-FileAnchor" style="stroke: #383838; stroke-width: 1.0;"/><polygon fill="none" points="79.8243,211.384,97.7338,200.059,90.7955,220.08,79.8243,211.384" style="stroke: #383838; stroke-width: 1.0;"/><!--link AbstractFile to Folder--><path d="M568.175,302.6957 C574.283,317.0053 581.241,333.3078 585.743,343.8544 " fill="none" id="AbstractFile-Folder" style="stroke: #383838; stroke-width: 1.0;"/><polygon fill="none" points="561.634,305.2014,560.22,284.0589,574.51,299.7054,561.634,305.2014" style="stroke: #383838; stroke-width: 1.0;"/><!--link AbstractFileAnchor to IndexedFileAnchor--><path d="M128.016,215.732 C140.065,230.703 154.448,248.572 163.529,259.854 " fill="none" id="AbstractFileAnchor-IndexedFileAnchor" style="stroke: #383838; stroke-width: 1.0;"/><polygon fill="none" points="122.488,220.028,115.401,200.059,133.394,211.25,122.488,220.028" style="stroke: #383838; stroke-width: 1.0;"/><!--link SourceAnchor to MultipleFileAnchor--><path d="M365.69,130.76 C379.927,145.922 397.209,164.327 408.034,175.854 " fill="none" id="SourceAnchor-MultipleFileAnchor" style="stroke: #383838; stroke-width: 1.0;"/><polygon fill="none" points="360.472,135.43,351.885,116.059,370.678,125.847,360.472,135.43" style="stroke: #383838; stroke-width: 1.0;"/><!--
@startuml
skinparam shadowing false
skinparam monochrome true
hide circle
skinparam class {
	BackgroundColor White
}
hide empty members

	SourceAnchor -up-|> Entity
	SourceLanguage -up-|> Entity
	SourcedEntity -up-|> Entity
    Association -up-|> SourcedEntity
	Comment -up-|> SourcedEntity
	NamedEntity -up-|> SourcedEntity
	SourceTextAnchor -up-|> SourceAnchor
	
    class Entity #yellow
    class SourceAnchor #yellow
    class SourceLanguage #yellow
    class SourcedEntity #yellow	
    class Association #yellow	
    class Comment #yellow	
    class NamedEntity #yellow	
    class SourceTextAnchor #yellow	
	
	
	AbstractFile -up-|> NamedEntity
	AbstractFileAnchor -up-|> SourceAnchor
	File -up-|> AbstractFile
	FileAnchor -up-|> AbstractFileAnchor
	Folder -up-|> AbstractFile
	IndexedFileAnchor -up-|> AbstractFileAnchor
	MultipleFileAnchor -up-|> SourceAnchor

	

@enduml

PlantUML version 1.2018.08(Sun Jun 24 14:31:00 CEST 2018)
(GPL source distribution)
Java Runtime: OpenJDK Runtime Environment
JVM: OpenJDK Server VM
Java Version: 1.8.0_181-8u181-b13-0ubuntu0.16.04.1-b13
Operating System: Linux
OS Version: 4.4.0-130-generic
Default Encoding: UTF-8
Language: en
Country: US
--></g></svg>