<?xml version="1.0" encoding="UTF-8" standalone="no"?><svg xmlns="http://www.w3.org/2000/svg" xmlns:xlink="http://www.w3.org/1999/xlink" contentScriptType="application/ecmascript" contentStyleType="text/css" height="235px" preserveAspectRatio="none" style="width:440px;height:235px;" version="1.1" viewBox="0 0 440 235" width="440px" zoomAndPan="magnify"><defs/><g><!--class TAccess--><rect fill="#FFFFFF" height="32" id="TAccess" style="stroke: #383838; stroke-width: 1.5;" width="83" x="189.5" y="8"/><ellipse cx="204.5" cy="24" fill="#9B9B9B" rx="11" ry="11" style="stroke: #383838; stroke-width: 1.0;"/><path d="M204.9375,21.5313 L204.9375,28.0469 L206.0625,28.0469 C206.5156,28.0469 206.6563,28.0781 206.8125,28.2031 C207.0469,28.375 207.1719,28.625 207.1719,28.9063 C207.1719,29.1875 207.0313,29.4844 206.7656,29.625 C206.6563,29.7031 206.3906,29.75 206.0625,29.75 L202.125,29.75 C201.7344,29.75 201.5156,29.7031 201.3594,29.5781 C201.1406,29.4219 201,29.1563 201,28.9063 C201,28.6094 201.1563,28.3281 201.4063,28.1719 C201.5625,28.0625 201.6875,28.0469 202.125,28.0469 L203.2344,28.0469 L203.2344,21.5313 L201.4063,21.5313 L201.4063,23.125 C201.4063,23.5781 201.375,23.7188 201.2656,23.8906 C201.0938,24.1094 200.8438,24.2344 200.5625,24.2344 C200.2813,24.2344 199.9844,24.0938 199.8281,23.8281 C199.75,23.6875 199.7188,23.5156 199.7188,23.125 L199.7188,19.8438 L208.4844,19.8438 L208.4844,23.125 C208.4844,23.5938 208.4688,23.7188 208.3281,23.8906 C208.1563,24.1094 207.9063,24.2344 207.6406,24.2344 C207.3438,24.2344 207.0625,24.0781 206.9063,23.8281 C206.8125,23.6875 206.7813,23.5156 206.7813,23.125 L206.7813,21.5313 Z "/><text fill="#000000" font-family="sans-serif" font-size="12" lengthAdjust="spacingAndGlyphs" textLength="51" x="218.5" y="28.1543">TAccess</text><!--class TAccessible--><rect fill="#FFFFFF" height="32" id="TAccessible" style="stroke: #383838; stroke-width: 1.5;" width="105" x="25.5" y="100"/><ellipse cx="40.5" cy="116" fill="#9B9B9B" rx="11" ry="11" style="stroke: #383838; stroke-width: 1.0;"/><path d="M40.9375,113.5313 L40.9375,120.0469 L42.0625,120.0469 C42.5156,120.0469 42.6563,120.0781 42.8125,120.2031 C43.0469,120.375 43.1719,120.625 43.1719,120.9063 C43.1719,121.1875 43.0313,121.4844 42.7656,121.625 C42.6563,121.7031 42.3906,121.75 42.0625,121.75 L38.125,121.75 C37.7344,121.75 37.5156,121.7031 37.3594,121.5781 C37.1406,121.4219 37,121.1563 37,120.9063 C37,120.6094 37.1563,120.3281 37.4063,120.1719 C37.5625,120.0625 37.6875,120.0469 38.125,120.0469 L39.2344,120.0469 L39.2344,113.5313 L37.4063,113.5313 L37.4063,115.125 C37.4063,115.5781 37.375,115.7188 37.2656,115.8906 C37.0938,116.1094 36.8438,116.2344 36.5625,116.2344 C36.2813,116.2344 35.9844,116.0938 35.8281,115.8281 C35.75,115.6875 35.7188,115.5156 35.7188,115.125 L35.7188,111.8438 L44.4844,111.8438 L44.4844,115.125 C44.4844,115.5938 44.4688,115.7188 44.3281,115.8906 C44.1563,116.1094 43.9063,116.2344 43.6406,116.2344 C43.3438,116.2344 43.0625,116.0781 42.9063,115.8281 C42.8125,115.6875 42.7813,115.5156 42.7813,115.125 L42.7813,113.5313 Z "/><text fill="#000000" font-family="sans-serif" font-size="12" lengthAdjust="spacingAndGlyphs" textLength="73" x="54.5" y="120.1543">TAccessible</text><!--class TWithAccesses--><rect fill="#FFFFFF" height="32" id="TWithAccesses" style="stroke: #383838; stroke-width: 1.5;" width="125" x="168.5" y="100"/><ellipse cx="183.5" cy="116" fill="#9B9B9B" rx="11" ry="11" style="stroke: #383838; stroke-width: 1.0;"/><path d="M183.9375,113.5313 L183.9375,120.0469 L185.0625,120.0469 C185.5156,120.0469 185.6563,120.0781 185.8125,120.2031 C186.0469,120.375 186.1719,120.625 186.1719,120.9063 C186.1719,121.1875 186.0313,121.4844 185.7656,121.625 C185.6563,121.7031 185.3906,121.75 185.0625,121.75 L181.125,121.75 C180.7344,121.75 180.5156,121.7031 180.3594,121.5781 C180.1406,121.4219 180,121.1563 180,120.9063 C180,120.6094 180.1563,120.3281 180.4063,120.1719 C180.5625,120.0625 180.6875,120.0469 181.125,120.0469 L182.2344,120.0469 L182.2344,113.5313 L180.4063,113.5313 L180.4063,115.125 C180.4063,115.5781 180.375,115.7188 180.2656,115.8906 C180.0938,116.1094 179.8438,116.2344 179.5625,116.2344 C179.2813,116.2344 178.9844,116.0938 178.8281,115.8281 C178.75,115.6875 178.7188,115.5156 178.7188,115.125 L178.7188,111.8438 L187.4844,111.8438 L187.4844,115.125 C187.4844,115.5938 187.4688,115.7188 187.3281,115.8906 C187.1563,116.1094 186.9063,116.2344 186.6406,116.2344 C186.3438,116.2344 186.0625,116.0781 185.9063,115.8281 C185.8125,115.6875 185.7813,115.5156 185.7813,115.125 L185.7813,113.5313 Z "/><text fill="#000000" font-family="sans-serif" font-size="12" lengthAdjust="spacingAndGlyphs" textLength="93" x="197.5" y="120.1543">TWithAccesses</text><!--class JavaAccess--><rect fill="#E2E2E2" height="32" id="JavaAccess" style="stroke: #383838; stroke-width: 1.5;" width="101" x="328.5" y="100"/><rect fill="#E2E2E2" height="32" style="stroke: #383838; stroke-width: 1.5;" width="101" x="328.5" y="100"/><ellipse cx="343.5" cy="116" fill="#C2C2C2" rx="11" ry="11" style="stroke: #383838; stroke-width: 1.0;"/><path d="M345.8438,111.6719 L346.0156,111.75 C346.2344,111.4375 346.4375,111.3438 346.7344,111.3438 C347.0313,111.3438 347.3125,111.4844 347.4688,111.75 C347.5625,111.9063 347.5781,112.0313 347.5781,112.4688 L347.5781,113.8906 C347.5781,114.3125 347.5469,114.5 347.4375,114.6563 C347.2656,114.875 347,115.0156 346.7344,115.0156 C346.5156,115.0156 346.2813,114.9063 346.1406,114.7656 C346,114.6406 345.9688,114.5156 345.9063,114.1094 C345.8125,113.7031 345.6406,113.4844 345.1563,113.2031 C344.6875,112.9531 344.0781,112.7969 343.5,112.7969 C341.7656,112.7969 340.5156,114.1094 340.5156,115.8906 L340.5156,116.9844 C340.5156,118.6875 341.8125,119.7813 343.8594,119.7813 C344.625,119.7813 345.3125,119.6563 345.7344,119.3906 C345.9219,119.2969 345.9219,119.2969 346.375,118.8125 C346.5625,118.625 346.7656,118.5469 346.9844,118.5469 C347.4531,118.5469 347.8438,118.9375 347.8438,119.3906 C347.8438,119.7813 347.5156,120.2344 346.9375,120.6406 C346.1875,121.1875 345.0313,121.4844 343.8125,121.4844 C340.9219,121.4844 338.8125,119.5938 338.8125,117.0156 L338.8125,115.8906 C338.8125,113.1719 340.8125,111.0938 343.4375,111.0938 C344.3125,111.0938 344.9063,111.2344 345.8438,111.6719 Z "/><text fill="#000000" font-family="sans-serif" font-size="12" lengthAdjust="spacingAndGlyphs" textLength="69" x="357.5" y="120.1543">JavaAccess</text><!--class JavaLocalVariable--><rect fill="#E2E2E2" height="32" id="JavaLocalVariable" style="stroke: #383838; stroke-width: 1.5;" width="140" x="6" y="192"/><rect fill="#E2E2E2" height="32" style="stroke: #383838; stroke-width: 1.5;" width="140" x="6" y="192"/><ellipse cx="21" cy="208" fill="#C2C2C2" rx="11" ry="11" style="stroke: #383838; stroke-width: 1.0;"/><path d="M23.3438,203.6719 L23.5156,203.75 C23.7344,203.4375 23.9375,203.3438 24.2344,203.3438 C24.5313,203.3438 24.8125,203.4844 24.9688,203.75 C25.0625,203.9063 25.0781,204.0313 25.0781,204.4688 L25.0781,205.8906 C25.0781,206.3125 25.0469,206.5 24.9375,206.6563 C24.7656,206.875 24.5,207.0156 24.2344,207.0156 C24.0156,207.0156 23.7813,206.9063 23.6406,206.7656 C23.5,206.6406 23.4688,206.5156 23.4063,206.1094 C23.3125,205.7031 23.1406,205.4844 22.6563,205.2031 C22.1875,204.9531 21.5781,204.7969 21,204.7969 C19.2656,204.7969 18.0156,206.1094 18.0156,207.8906 L18.0156,208.9844 C18.0156,210.6875 19.3125,211.7813 21.3594,211.7813 C22.125,211.7813 22.8125,211.6563 23.2344,211.3906 C23.4219,211.2969 23.4219,211.2969 23.875,210.8125 C24.0625,210.625 24.2656,210.5469 24.4844,210.5469 C24.9531,210.5469 25.3438,210.9375 25.3438,211.3906 C25.3438,211.7813 25.0156,212.2344 24.4375,212.6406 C23.6875,213.1875 22.5313,213.4844 21.3125,213.4844 C18.4219,213.4844 16.3125,211.5938 16.3125,209.0156 L16.3125,207.8906 C16.3125,205.1719 18.3125,203.0938 20.9375,203.0938 C21.8125,203.0938 22.4063,203.2344 23.3438,203.6719 Z "/><text fill="#000000" font-family="sans-serif" font-size="12" lengthAdjust="spacingAndGlyphs" textLength="108" x="35" y="212.1543">JavaLocalVariable</text><!--class JavaMethod--><rect fill="#E2E2E2" height="32" id="JavaMethod" style="stroke: #383838; stroke-width: 1.5;" width="104" x="181" y="192"/><rect fill="#E2E2E2" height="32" style="stroke: #383838; stroke-width: 1.5;" width="104" x="181" y="192"/><ellipse cx="196" cy="208" fill="#C2C2C2" rx="11" ry="11" style="stroke: #383838; stroke-width: 1.0;"/><path d="M198.3438,203.6719 L198.5156,203.75 C198.7344,203.4375 198.9375,203.3438 199.2344,203.3438 C199.5313,203.3438 199.8125,203.4844 199.9688,203.75 C200.0625,203.9063 200.0781,204.0313 200.0781,204.4688 L200.0781,205.8906 C200.0781,206.3125 200.0469,206.5 199.9375,206.6563 C199.7656,206.875 199.5,207.0156 199.2344,207.0156 C199.0156,207.0156 198.7813,206.9063 198.6406,206.7656 C198.5,206.6406 198.4688,206.5156 198.4063,206.1094 C198.3125,205.7031 198.1406,205.4844 197.6563,205.2031 C197.1875,204.9531 196.5781,204.7969 196,204.7969 C194.2656,204.7969 193.0156,206.1094 193.0156,207.8906 L193.0156,208.9844 C193.0156,210.6875 194.3125,211.7813 196.3594,211.7813 C197.125,211.7813 197.8125,211.6563 198.2344,211.3906 C198.4219,211.2969 198.4219,211.2969 198.875,210.8125 C199.0625,210.625 199.2656,210.5469 199.4844,210.5469 C199.9531,210.5469 200.3438,210.9375 200.3438,211.3906 C200.3438,211.7813 200.0156,212.2344 199.4375,212.6406 C198.6875,213.1875 197.5313,213.4844 196.3125,213.4844 C193.4219,213.4844 191.3125,211.5938 191.3125,209.0156 L191.3125,207.8906 C191.3125,205.1719 193.3125,203.0938 195.9375,203.0938 C196.8125,203.0938 197.4063,203.2344 198.3438,203.6719 Z "/><text fill="#000000" font-family="sans-serif" font-size="12" lengthAdjust="spacingAndGlyphs" textLength="72" x="210" y="212.1543">JavaMethod</text><!--link TAccess to TWithAccesses--><path d="M231,40.267 C231,56.917 231,83.397 231,99.958 " fill="none" id="TAccess-TWithAccesses" style="stroke: #383838; stroke-width: 1.0;"/><text fill="#000000" font-family="sans-serif" font-size="13" lengthAdjust="spacingAndGlyphs" textLength="7" x="222.8844" y="59.9308">*</text><!--link TAccess to TAccessible--><path d="M205.391,40.064 C177.148,56.677 131.969,83.254 103.6923,99.887 " fill="none" id="TAccess-TAccessible" style="stroke: #383838; stroke-width: 1.0;"/><text fill="#000000" font-family="sans-serif" font-size="13" lengthAdjust="spacingAndGlyphs" textLength="7" x="188.7486" y="59.9585">*</text><!--link TAccess to JavaAccess--><path d="M273.031,50.559 C299.223,66.487 332.03,86.437 354.147,99.887 " fill="none" id="TAccess-JavaAccess" style="stroke: #383838; stroke-width: 1.0;"/><polygon fill="none" points="269.223,56.437,255.772,40.064,276.497,44.475,269.223,56.437" style="stroke: #383838; stroke-width: 1.0;"/><!--link TAccessible to JavaLocalVariable--><path d="M77.2086,152.6147 C76.9042,166.3102 76.5729,181.2196 76.3343,191.9582 " fill="none" id="TAccessible-JavaLocalVariable" style="stroke: #383838; stroke-width: 1.0;"/><polygon fill="none" points="70.218,152.1068,77.6607,132.2673,84.2146,152.4179,70.218,152.1068" style="stroke: #383838; stroke-width: 1.0;"/><!--link TWithAccesses to JavaMethod--><path d="M231.791,152.6147 C232.096,166.3102 232.427,181.2196 232.666,191.9582 " fill="none" id="TWithAccesses-JavaMethod" style="stroke: #383838; stroke-width: 1.0;"/><polygon fill="none" points="224.785,152.4179,231.339,132.2673,238.782,152.1068,224.785,152.4179" style="stroke: #383838; stroke-width: 1.0;"/><!--
@startuml
skinparam shadowing false
skinparam monochrome true
skinparam class {
	BackgroundColor White
}
hide empty members
class TAccess << (T,orchid) >>
class TAccessible << (T,orchid) >>
class TWithAccesses << (T,orchid) >>
 
TAccess "*" - - TWithAccesses
TAccess "*" - - TAccessible


class JavaAccess #yellow
class JavaLocalVariable #yellow
class JavaMethod #yellow
 
TAccess <|-down- JavaAccess
TAccessible <|- - JavaLocalVariable
TWithAccesses <|- - JavaMethod
@enduml

PlantUML version 1.2018.11beta1(Unknown compile time)
(GPL source distribution)
Java Runtime: Java(TM) SE Runtime Environment
JVM: Java HotSpot(TM) 64-Bit Server VM
Java Version: 1.7.0_25-b15
Operating System: Linux
Default Encoding: UTF-8
Language: en
Country: US
--></g></svg>