<?xml version="1.0" encoding="UTF-8" standalone="no"?>
<svg
   xmlns:dc="http://purl.org/dc/elements/1.1/"
   xmlns:cc="http://creativecommons.org/ns#"
   xmlns:rdf="http://www.w3.org/1999/02/22-rdf-syntax-ns#"
   xmlns:svg="http://www.w3.org/2000/svg"
   xmlns="http://www.w3.org/2000/svg"
   xmlns:sodipodi="http://sodipodi.sourceforge.net/DTD/sodipodi-0.dtd"
   xmlns:inkscape="http://www.inkscape.org/namespaces/inkscape"
   contentScriptType="application/ecmascript"
   contentStyleType="text/css"
   height="143px"
   preserveAspectRatio="none"
   style="width:289px;height:143px;"
   version="1.1"
   viewBox="0 0 289 143"
   width="289px"
   zoomAndPan="magnify"
   id="svg2"
   inkscape:version="0.91 r13725"
   sodipodi:docname="accessGroup.svg">
  <metadata
     id="metadata45">
    <rdf:RDF>
      <cc:Work
         rdf:about="">
        <dc:format>image/svg+xml</dc:format>
        <dc:type
           rdf:resource="http://purl.org/dc/dcmitype/StillImage" />
      </cc:Work>
    </rdf:RDF>
  </metadata>
  <sodipodi:namedview
     pagecolor="#ffffff"
     bordercolor="#666666"
     borderopacity="1"
     objecttolerance="10"
     gridtolerance="10"
     guidetolerance="10"
     inkscape:pageopacity="0"
     inkscape:pageshadow="2"
     inkscape:window-width="1920"
     inkscape:window-height="1151"
     id="namedview43"
     showgrid="false"
     inkscape:zoom="2.8675749"
     inkscape:cx="98.185621"
     inkscape:cy="94.927468"
     inkscape:window-x="0"
     inkscape:window-y="0"
     inkscape:window-maximized="1"
     inkscape:current-layer="svg2" />
  <defs
     id="defs4" />
  <rect
     y="8"
     x="109.044"
     width="76"
     style="fill:#ffffff;stroke:#383838;stroke-width:1.5"
     id="Access"
     height="32" />
  <circle
     r="11"
     id="ellipse9"
     style="fill:#9b9b9b;stroke:#383838;stroke-width:1"
     cy="24"
     cx="124.044" />
  <path
     inkscape:connector-curvature="0"
     id="path11"
     d="m 124.4815,21.5313 0,6.5156 1.125,0 c 0.4531,0 0.5938,0.0312 0.75,0.1562 0.2344,0.1719 0.3594,0.4219 0.3594,0.7032 0,0.2812 -0.1406,0.5781 -0.4063,0.7187 -0.1093,0.0781 -0.375,0.125 -0.7031,0.125 l -3.9375,0 c -0.3906,0 -0.6094,-0.0469 -0.7656,-0.1719 -0.2188,-0.1562 -0.3594,-0.4218 -0.3594,-0.6718 0,-0.2969 0.1563,-0.5782 0.4063,-0.7344 0.1562,-0.1094 0.2812,-0.125 0.7187,-0.125 l 1.1094,0 0,-6.5156 -1.8281,0 0,1.5937 c 0,0.4531 -0.0313,0.5938 -0.1407,0.7656 -0.1718,0.2188 -0.4218,0.3438 -0.7031,0.3438 -0.2812,0 -0.5781,-0.1406 -0.7344,-0.4063 -0.0781,-0.1406 -0.1093,-0.3125 -0.1093,-0.7031 l 0,-3.2812 8.7656,0 0,3.2812 c 0,0.4688 -0.0157,0.5938 -0.1563,0.7656 -0.1718,0.2188 -0.4218,0.3438 -0.6875,0.3438 -0.2968,0 -0.5781,-0.1563 -0.7343,-0.4063 -0.0938,-0.1406 -0.125,-0.3125 -0.125,-0.7031 l 0,-1.5937 z" />
  <text
     style="font-size:12px;font-family:sans-serif;fill:#000000"
     id="text13"
     y="28.154301"
     x="138.04401"
     textLength="44"
     lengthAdjust="spacingAndGlyphs"
     font-size="12">Access</text>
  <rect
     y="100"
     x="27.044201"
     width="98"
     style="fill:#ffffff;stroke:#383838;stroke-width:1.5"
     id="Accessible"
     height="32" />
  <circle
     r="11"
     id="ellipse16"
     style="fill:#9b9b9b;stroke:#383838;stroke-width:1"
     cy="116"
     cx="42.044201" />
  <path
     inkscape:connector-curvature="0"
     id="path18"
     d="m 42.4817,113.5313 0,6.5156 1.125,0 c 0.4531,0 0.5938,0.0312 0.75,0.1562 0.2344,0.1719 0.3594,0.4219 0.3594,0.7032 0,0.2812 -0.1406,0.5781 -0.4063,0.7187 -0.1093,0.0781 -0.375,0.125 -0.7031,0.125 l -3.9375,0 c -0.3906,0 -0.6094,-0.0469 -0.7656,-0.1719 -0.2188,-0.1562 -0.3594,-0.4218 -0.3594,-0.6718 0,-0.2969 0.1563,-0.5782 0.4063,-0.7344 0.1562,-0.1094 0.2812,-0.125 0.7187,-0.125 l 1.1094,0 0,-6.5156 -1.8281,0 0,1.5937 c 0,0.4531 -0.0313,0.5938 -0.1407,0.7656 -0.1718,0.2188 -0.4218,0.3438 -0.7031,0.3438 -0.2812,0 -0.5781,-0.1406 -0.7344,-0.4063 -0.0781,-0.1406 -0.1093,-0.3125 -0.1093,-0.7031 l 0,-3.2812 8.7656,0 0,3.2812 c 0,0.4688 -0.0156,0.5938 -0.1563,0.7656 -0.1718,0.2188 -0.4218,0.3438 -0.6875,0.3438 -0.2968,0 -0.5781,-0.1563 -0.7343,-0.4063 -0.0938,-0.1406 -0.125,-0.3125 -0.125,-0.7031 l 0,-1.5937 z" />
  <text
     style="font-size:12px;font-family:sans-serif;fill:#000000"
     id="text20"
     y="120.1543"
     x="56.044201"
     textLength="66"
     lengthAdjust="spacingAndGlyphs"
     font-size="12">Accessible</text>
  <rect
     y="100"
     x="160.04401"
     width="118"
     style="fill:#ffffff;stroke:#383838;stroke-width:1.5"
     id="WithAccesses"
     height="32" />
  <circle
     r="11"
     id="ellipse23"
     style="fill:#9b9b9b;stroke:#383838;stroke-width:1"
     cy="116"
     cx="175.04401" />
  <path
     inkscape:connector-curvature="0"
     id="path25"
     d="m 175.4815,113.5313 0,6.5156 1.125,0 c 0.4531,0 0.5938,0.0312 0.75,0.1562 0.2344,0.1719 0.3594,0.4219 0.3594,0.7032 0,0.2812 -0.1406,0.5781 -0.4063,0.7187 -0.1093,0.0781 -0.375,0.125 -0.7031,0.125 l -3.9375,0 c -0.3906,0 -0.6094,-0.0469 -0.7656,-0.1719 -0.2188,-0.1562 -0.3594,-0.4218 -0.3594,-0.6718 0,-0.2969 0.1563,-0.5782 0.4063,-0.7344 0.1562,-0.1094 0.2812,-0.125 0.7187,-0.125 l 1.1094,0 0,-6.5156 -1.8281,0 0,1.5937 c 0,0.4531 -0.0313,0.5938 -0.1407,0.7656 -0.1718,0.2188 -0.4218,0.3438 -0.7031,0.3438 -0.2812,0 -0.5781,-0.1406 -0.7344,-0.4063 -0.0781,-0.1406 -0.1093,-0.3125 -0.1093,-0.7031 l 0,-3.2812 8.7656,0 0,3.2812 c 0,0.4688 -0.0156,0.5938 -0.1563,0.7656 -0.1718,0.2188 -0.4218,0.3438 -0.6875,0.3438 -0.2968,0 -0.5781,-0.1563 -0.7343,-0.4063 -0.0938,-0.1406 -0.125,-0.3125 -0.125,-0.7031 l 0,-1.5937 z" />
  <text
     style="font-size:12px;font-family:sans-serif;fill:#000000"
     id="text27"
     y="120.1543"
     x="189.04401"
     textLength="86"
     lengthAdjust="spacingAndGlyphs"
     font-size="12">WithAccesses</text>
  <path
     inkscape:connector-curvature="0"
     style="fill:none;stroke:#383838;stroke-width:1"
     id="Access-WithAccesses"
     d="m 159.258,40.2673 c 13.32,16.6502 34.504,43.1301 47.753,59.6909" />
  <text
     style="font-size:11.39482594px;font-family:sans-serif;fill:#000000"
     id="text32"
     y="53.424618"
     x="172.47495"
     textLength="59"
     lengthAdjust="spacingAndGlyphs"
     font-size="13">* accesses</text>
  <text
     style="font-size:11.39482594px;font-family:sans-serif;fill:#000000"
     id="text34"
     y="93.511581"
     x="138.39078"
     textLength="57"
     lengthAdjust="spacingAndGlyphs"
     font-size="13">accessor</text>
  <path
     inkscape:connector-curvature="0"
     style="fill:none;stroke:#383838;stroke-width:1"
     id="Access-Accessible"
     d="M 135,40.2673 C 121.865,56.9175 100.9751,83.3974 87.9105,99.9582" />
  <text
     style="font-size:11.39482594px;font-family:sans-serif;fill:#000000"
     id="text39"
     y="54.12207"
     x="8.7942982"
     textLength="118"
     lengthAdjust="spacingAndGlyphs"
     font-size="13">incomingAccesses *</text>
  <text
     style="font-size:11.39482594px;font-family:sans-serif;fill:#000000"
     id="text41"
     y="92.465401"
     x="44.551437"
     textLength="50"
     lengthAdjust="spacingAndGlyphs"
     font-size="13">variable</text>
</svg>
