<?xml version="1.0" encoding="UTF-8" standalone="no"?><svg xmlns="http://www.w3.org/2000/svg" xmlns:xlink="http://www.w3.org/1999/xlink" contentScriptType="application/ecmascript" contentStyleType="text/css" height="210px" preserveAspectRatio="none" style="width:263px;height:210px;" version="1.1" viewBox="0 0 263 210" width="263px" zoomAndPan="magnify"><defs/><g><!--class CppEntity--><rect fill="#FFFFFF" height="23.9688" id="CppEntity" style="stroke: #383838; stroke-width: 1.5;" width="65" x="129" y="8"/><text fill="#000000" font-family="sans-serif" font-size="12" lengthAdjust="spacingAndGlyphs" textLength="59" x="132" y="24.1387">CppEntity</text><!--class CppBehavioural--><rect fill="#FFFFFF" height="23.9688" id="CppBehavioural" style="stroke: #383838; stroke-width: 1.5;" width="103" x="51" y="92"/><text fill="#000000" font-family="sans-serif" font-size="12" lengthAdjust="spacingAndGlyphs" textLength="97" x="54" y="108.1387">CppBehavioural</text><!--class CppMethod--><rect fill="#FFFFFF" height="23.9688" id="CppMethod" style="stroke: #383838; stroke-width: 1.5;" width="77" x="6" y="176"/><text fill="#000000" font-family="sans-serif" font-size="12" lengthAdjust="spacingAndGlyphs" textLength="71" x="9" y="192.1387">CppMethod</text><!--class CppFunction--><rect fill="#FFFFFF" height="23.9688" id="CppFunction" style="stroke: #383838; stroke-width: 1.5;" width="84" x="118.5" y="176"/><text fill="#000000" font-family="sans-serif" font-size="12" lengthAdjust="spacingAndGlyphs" textLength="78" x="121.5" y="192.1387">CppFunction</text><!--class CppClass--><rect fill="#FFFFFF" height="23.9688" id="CppClass" style="stroke: #383838; stroke-width: 1.5;" width="63" x="189" y="92"/><text fill="#000000" font-family="sans-serif" font-size="12" lengthAdjust="spacingAndGlyphs" textLength="57" x="192" y="108.1387">CppClass</text><!--link CppEntity to CppBehavioural--><path d="M141.56,48.713 C130.938,63.476 118.461,80.817 110.519,91.854 " fill="none" id="CppEntity-CppBehavioural" style="stroke: #383838; stroke-width: 1.0;"/><polygon fill="none" points="136.18,44.205,153.543,32.059,147.544,52.382,136.18,44.205" style="stroke: #383838; stroke-width: 1.0;"/><!--link CppBehavioural to CppMethod--><path d="M82.8983,132.7127 C72.4558,147.4763 60.1902,164.8172 52.3834,175.8544 " fill="none" id="CppBehavioural-CppMethod" style="stroke: #383838; stroke-width: 1.0;"/><polygon fill="none" points="77.4136,128.3449,94.6779,116.0589,88.8434,136.4295,77.4136,128.3449" style="stroke: #383838; stroke-width: 1.0;"/><!--link CppBehavioural to CppFunction--><path d="M122.102,132.7127 C132.544,147.4763 144.81,164.8172 152.617,175.8544 " fill="none" id="CppBehavioural-CppFunction" style="stroke: #383838; stroke-width: 1.0;"/><polygon fill="none" points="116.157,136.4295,110.322,116.0589,127.586,128.3449,116.157,136.4295" style="stroke: #383838; stroke-width: 1.0;"/><!--link CppEntity to CppClass--><path d="M181.44,48.713 C192.062,63.476 204.539,80.817 212.481,91.854 " fill="none" id="CppEntity-CppClass" style="stroke: #383838; stroke-width: 1.0;"/><polygon fill="none" points="175.456,52.382,169.457,32.059,186.82,44.205,175.456,52.382" style="stroke: #383838; stroke-width: 1.0;"/><!--
@startuml
skinparam shadowing false
skinparam monochrome true
skinparam class {
	BackgroundColor White
}
hide empty members
hide circle

CppEntity <|- - CppBehavioural
CppBehavioural <|- - CppMethod
CppBehavioural <|- - CppFunction
CppEntity <|- - CppClass
@enduml

PlantUML version 1.2018.11beta1(Unknown compile time)
(GPL source distribution)
Java Runtime: Java(TM) SE Runtime Environment
JVM: Java HotSpot(TM) 64-Bit Server VM
Java Version: 1.7.0_25-b15
Operating System: Linux
Default Encoding: UTF-8
Language: en
Country: US
--></g></svg>